<svg width="973" height="121" viewBox="0 0 973 121" fill="none" xmlns="http://www.w3.org/2000/svg">
<path d="M74.3814 83.0187L49.2075 54.7086C64.9729 51.4877 70.2281 39.9603 70.2281 28.6023C70.2281 14.193 59.8873 1.13987 40.3076 1.05511C27.1697 1.05511 13.947 0.97035 0.809082 0.97035V84.1206H16.4898V56.3191H31.5772L55.734 84.1206H74.3814V83.0187ZM40.3076 15.634C50.1398 15.634 54.5474 22.3301 54.5474 28.9414C54.5474 35.5527 50.3093 42.2488 40.3076 42.2488H16.4898V15.634H40.3076ZM137.782 60.0486C139.986 35.9765 127.781 23.8557 108.201 23.8557C89.2145 23.8557 77.0937 36.6546 77.0937 54.4544C77.0937 73.1865 89.1298 85.6463 109.303 85.6463C118.203 85.6463 128.289 82.5949 134.392 76.1531L125.153 66.9989C121.847 70.4741 114.812 72.5084 109.472 72.5084C99.301 72.5084 93.0288 67.2532 92.0964 60.0486H137.782ZM92.2659 48.0125C94.4697 40.4688 100.827 36.6546 108.709 36.6546C117.016 36.6546 122.949 40.4688 123.882 48.0125H92.2659ZM194.826 33.688C191.521 27.8395 184.062 24.1948 176.179 24.1948C159.142 24.11 145.665 34.6204 145.665 54.7934C145.665 75.3055 158.549 85.9854 175.84 85.9006C182.367 85.8158 191.521 82.4254 194.826 75.5598L195.504 84.1206H209.151V25.6357H195.335L194.826 33.688ZM177.535 37.1632C200.251 37.1632 200.251 72.5932 177.535 72.5932C167.872 72.5932 160.159 65.9818 160.159 54.7934C160.159 43.6898 167.872 37.1632 177.535 37.1632ZM249.751 37.7565C258.905 37.7565 266.703 44.6221 266.703 54.7934C266.703 65.3885 258.905 71.9998 249.751 71.9998C240.512 71.9998 233.138 65.0495 233.138 54.7934C233.138 44.2831 240.512 37.7565 249.751 37.7565ZM267.721 1.13987V33.6032C264.245 27.5005 254.667 24.1948 248.48 24.1948C231.358 24.1948 218.644 34.6204 218.644 54.7934C218.644 74.0341 231.613 85.392 248.819 85.392C255.939 85.392 263.144 83.0187 267.721 76.0684L268.653 84.1206H282.13V1.13987H267.721ZM309.253 25.3814V84.1206H294.759V25.3814H309.253ZM293.403 9.10738C293.403 20.3806 310.525 20.3806 310.525 9.10738C310.525 -2.1658 293.403 -2.1658 293.403 9.10738ZM379.859 84.1206V53.3525C379.859 34.9594 368.755 24.7034 355.024 24.7034C347.65 24.7034 341.717 27.67 335.783 33.4337L334.851 25.4662H321.883V84.1206H336.292V54.2001C336.292 45.3002 342.31 37.8413 351.21 37.8413C360.449 37.8413 365.365 44.6221 365.365 53.522V84.1206H379.859ZM432.411 27.0767C428.342 24.2795 423.596 23.6862 419.018 23.6862C402.575 23.6862 389.352 35.1289 389.352 53.3525C389.352 71.6608 400.71 82.8492 419.018 82.8492C426.223 82.8492 433.852 86.4939 433.852 94.5462C433.852 102.598 427.325 107.176 419.018 107.176C410.712 107.176 403.677 102.175 403.677 94.5462H389.352C389.352 110.312 401.982 120.652 419.018 120.652C435.971 120.652 448.261 110.735 448.261 94.5462C448.261 87.0872 445.888 80.0521 436.225 75.2207C445.803 70.8132 448.515 60.6419 448.515 53.3525C448.515 46.9954 446.905 41.1469 442.328 36.0613L448.854 27.7547L438.174 19.7025L432.411 27.0767ZM419.018 36.9089C427.325 36.9089 434.191 43.2659 434.191 53.3525C434.191 63.439 427.325 69.6265 419.018 69.6265C410.542 69.6265 403.677 63.6085 403.677 53.3525C403.677 43.1812 410.542 36.9089 419.018 36.9089ZM498.524 15.8882H522.003C541.922 15.8882 542.006 45.3002 522.003 45.3002H498.524V15.8882ZM522.003 0.97035C508.95 0.97035 495.896 1.05511 482.843 1.05511V84.1206H498.524V59.7095H522.003C562.688 59.7095 562.603 0.97035 522.003 0.97035ZM559.467 25.6357V84.1206H573.961V53.2677C573.961 42.5031 580.996 38.4346 588.54 38.4346C593.287 38.4346 595.999 39.706 598.966 42.2488L605.492 29.6195C602.356 26.4833 596.507 24.11 590.489 24.11C584.556 24.11 578.453 25.1272 573.961 32.4166L572.859 25.6357H559.467ZM638.549 24.4491C619.901 24.4491 608.289 38.1803 608.289 54.9629C608.289 71.7456 619.647 85.392 638.634 85.392C657.62 85.392 669.147 71.7456 669.147 54.9629C669.147 38.1803 657.111 24.4491 638.549 24.4491ZM638.634 37.587C648.381 37.587 654.569 46.1478 654.569 54.9629C654.569 63.8628 649.229 72.1694 638.634 72.1694C628.038 72.1694 622.699 63.8628 622.699 54.9629C622.699 46.1478 628.208 37.587 638.634 37.587ZM719.241 27.0767C715.172 24.2795 710.426 23.6862 705.764 23.6862C689.405 23.6862 676.098 35.1289 676.098 53.3525C676.098 71.6608 687.541 82.8492 705.764 82.8492C713.053 82.8492 720.597 86.4939 720.597 94.5462C720.597 102.598 714.071 107.176 705.764 107.176C697.458 107.176 690.507 102.175 690.507 94.5462H676.098C676.098 110.312 688.812 120.652 705.764 120.652C722.801 120.652 735.091 110.735 735.091 94.5462C735.091 87.0872 732.718 80.0521 722.97 75.2207C732.633 70.8132 735.346 60.6419 735.346 53.3525C735.346 46.9954 733.65 41.1469 729.158 36.0613L735.685 27.7547L725.005 19.7025L719.241 27.0767ZM705.764 36.9089C714.071 36.9089 721.021 43.2659 721.021 53.3525C721.021 63.439 714.071 69.6265 705.764 69.6265C697.373 69.6265 690.507 63.6085 690.507 53.3525C690.507 43.1812 697.373 36.9089 705.764 36.9089ZM744.584 25.6357V84.1206H759.079V53.2677C759.079 42.5031 766.114 38.4346 773.657 38.4346C778.404 38.4346 781.116 39.706 784.083 42.2488L790.61 29.6195C787.473 26.4833 781.625 24.11 775.607 24.11C769.674 24.11 763.571 25.1272 759.079 32.4166L757.977 25.6357H744.584ZM854.095 60.0486C856.384 35.9765 844.178 23.8557 824.599 23.8557C805.612 23.8557 793.491 36.6546 793.491 54.4544C793.491 73.1865 805.443 85.6463 825.616 85.6463C834.516 85.6463 844.602 82.5949 850.79 76.1531L841.551 66.9989C838.245 70.4741 831.21 72.5084 825.87 72.5084C815.699 72.5084 809.426 67.2532 808.409 60.0486H854.095ZM808.664 48.0125C810.783 40.4688 817.224 36.6546 825.022 36.6546C833.329 36.6546 839.262 40.4688 840.279 48.0125H808.664ZM911.563 31.6537C904.782 25.7205 897.917 23.9405 888.762 23.9405C878.083 23.9405 864.097 28.6871 864.097 42.2488C864.097 55.5563 877.235 59.54 888.339 60.3876C896.645 60.8962 899.951 62.5066 899.951 66.5752C899.951 70.8132 894.865 73.695 889.356 73.5255C882.829 73.4408 873.336 69.9656 869.183 65.3885L862.063 75.7293C870.624 84.6292 879.863 86.1549 889.101 86.1549C905.884 86.1549 914.275 77.255 914.275 66.9142C914.275 51.403 900.29 48.8602 889.271 48.1821C881.812 47.6735 878.337 45.5545 878.337 41.7403C878.337 38.0955 882.151 35.9765 889.017 35.9765C894.611 35.9765 899.358 37.2479 903.511 41.1469L911.563 31.6537ZM969.794 31.6537C963.098 25.7205 956.147 23.9405 947.078 23.9405C936.398 23.9405 922.328 28.6871 922.328 42.2488C922.328 55.5563 935.55 59.54 946.569 60.3876C954.876 60.8962 958.181 62.5066 958.181 66.5752C958.181 70.8132 953.096 73.695 947.671 73.5255C941.145 73.4408 931.651 69.9656 927.498 65.3885L920.378 75.7293C928.854 84.6292 938.178 86.1549 947.417 86.1549C964.115 86.1549 972.591 77.255 972.591 66.9142C972.591 51.403 958.521 48.8602 947.502 48.1821C940.043 47.6735 936.567 45.5545 936.567 41.7403C936.567 38.0955 940.382 35.9765 947.247 35.9765C952.842 35.9765 957.588 37.2479 961.741 41.1469L969.794 31.6537Z" fill="white"/>
</svg>
